%TF.GenerationSoftware,KiCad,Pcbnew,5.1.7-a382d34a8~87~ubuntu18.04.1*%
%TF.CreationDate,2021-02-24T17:41:24-08:00*%
%TF.ProjectId,teensy3x_solenoid_driver,7465656e-7379-4337-985f-736f6c656e6f,rev?*%
%TF.SameCoordinates,Original*%
%TF.FileFunction,Copper,L2,Bot*%
%TF.FilePolarity,Positive*%
%FSLAX46Y46*%
G04 Gerber Fmt 4.6, Leading zero omitted, Abs format (unit mm)*
G04 Created by KiCad (PCBNEW 5.1.7-a382d34a8~87~ubuntu18.04.1) date 2021-02-24 17:41:24*
%MOMM*%
%LPD*%
G01*
G04 APERTURE LIST*
%TA.AperFunction,ComponentPad*%
%ADD10C,3.810000*%
%TD*%
%TA.AperFunction,ComponentPad*%
%ADD11O,1.200000X1.750000*%
%TD*%
%TA.AperFunction,ComponentPad*%
%ADD12R,1.700000X1.700000*%
%TD*%
%TA.AperFunction,ComponentPad*%
%ADD13C,1.700000*%
%TD*%
%TA.AperFunction,ComponentPad*%
%ADD14R,4.000000X2.000000*%
%TD*%
%TA.AperFunction,ComponentPad*%
%ADD15O,3.300000X2.000000*%
%TD*%
%TA.AperFunction,ComponentPad*%
%ADD16O,2.000000X3.500000*%
%TD*%
%TA.AperFunction,ComponentPad*%
%ADD17C,1.650000*%
%TD*%
%TA.AperFunction,ViaPad*%
%ADD18C,0.800000*%
%TD*%
%TA.AperFunction,Conductor*%
%ADD19C,0.381000*%
%TD*%
%TA.AperFunction,Conductor*%
%ADD20C,0.254000*%
%TD*%
G04 APERTURE END LIST*
D10*
%TO.P,M4,*%
%TO.N,*%
X54610000Y-104140000D03*
%TD*%
%TO.P,M3,*%
%TO.N,*%
X135890000Y-104140000D03*
%TD*%
%TO.P,M2,*%
%TO.N,*%
X135890000Y-54610000D03*
%TD*%
%TO.P,M1,*%
%TO.N,*%
X54610000Y-54610000D03*
%TD*%
%TO.P,J1,1*%
%TO.N,Net-(C1-Pad1)*%
%TA.AperFunction,ComponentPad*%
G36*
G01*
X66640000Y-56524999D02*
X66640000Y-57775001D01*
G75*
G02*
X66390001Y-58025000I-249999J0D01*
G01*
X65689999Y-58025000D01*
G75*
G02*
X65440000Y-57775001I0J249999D01*
G01*
X65440000Y-56524999D01*
G75*
G02*
X65689999Y-56275000I249999J0D01*
G01*
X66390001Y-56275000D01*
G75*
G02*
X66640000Y-56524999I0J-249999D01*
G01*
G37*
%TD.AperFunction*%
D11*
%TO.P,J1,2*%
%TO.N,Net-(J1-Pad2)*%
X64040000Y-57150000D03*
%TD*%
%TO.P,J2,2*%
%TO.N,Net-(J2-Pad2)*%
X74200000Y-57150000D03*
%TO.P,J2,1*%
%TO.N,Net-(C1-Pad1)*%
%TA.AperFunction,ComponentPad*%
G36*
G01*
X76800000Y-56524999D02*
X76800000Y-57775001D01*
G75*
G02*
X76550001Y-58025000I-249999J0D01*
G01*
X75849999Y-58025000D01*
G75*
G02*
X75600000Y-57775001I0J249999D01*
G01*
X75600000Y-56524999D01*
G75*
G02*
X75849999Y-56275000I249999J0D01*
G01*
X76550001Y-56275000D01*
G75*
G02*
X76800000Y-56524999I0J-249999D01*
G01*
G37*
%TD.AperFunction*%
%TD*%
%TO.P,J3,1*%
%TO.N,Net-(C1-Pad1)*%
%TA.AperFunction,ComponentPad*%
G36*
G01*
X86960000Y-56524999D02*
X86960000Y-57775001D01*
G75*
G02*
X86710001Y-58025000I-249999J0D01*
G01*
X86009999Y-58025000D01*
G75*
G02*
X85760000Y-57775001I0J249999D01*
G01*
X85760000Y-56524999D01*
G75*
G02*
X86009999Y-56275000I249999J0D01*
G01*
X86710001Y-56275000D01*
G75*
G02*
X86960000Y-56524999I0J-249999D01*
G01*
G37*
%TD.AperFunction*%
%TO.P,J3,2*%
%TO.N,Net-(J3-Pad2)*%
X84360000Y-57150000D03*
%TD*%
%TO.P,J4,2*%
%TO.N,Net-(J4-Pad2)*%
X94520000Y-57150000D03*
%TO.P,J4,1*%
%TO.N,Net-(C1-Pad1)*%
%TA.AperFunction,ComponentPad*%
G36*
G01*
X97120000Y-56524999D02*
X97120000Y-57775001D01*
G75*
G02*
X96870001Y-58025000I-249999J0D01*
G01*
X96169999Y-58025000D01*
G75*
G02*
X95920000Y-57775001I0J249999D01*
G01*
X95920000Y-56524999D01*
G75*
G02*
X96169999Y-56275000I249999J0D01*
G01*
X96870001Y-56275000D01*
G75*
G02*
X97120000Y-56524999I0J-249999D01*
G01*
G37*
%TD.AperFunction*%
%TD*%
%TO.P,J5,1*%
%TO.N,Net-(C1-Pad1)*%
%TA.AperFunction,ComponentPad*%
G36*
G01*
X107280000Y-56524999D02*
X107280000Y-57775001D01*
G75*
G02*
X107030001Y-58025000I-249999J0D01*
G01*
X106329999Y-58025000D01*
G75*
G02*
X106080000Y-57775001I0J249999D01*
G01*
X106080000Y-56524999D01*
G75*
G02*
X106329999Y-56275000I249999J0D01*
G01*
X107030001Y-56275000D01*
G75*
G02*
X107280000Y-56524999I0J-249999D01*
G01*
G37*
%TD.AperFunction*%
%TO.P,J5,2*%
%TO.N,Net-(J5-Pad2)*%
X104680000Y-57150000D03*
%TD*%
%TO.P,J6,2*%
%TO.N,Net-(J6-Pad2)*%
X114840000Y-57150000D03*
%TO.P,J6,1*%
%TO.N,Net-(C1-Pad1)*%
%TA.AperFunction,ComponentPad*%
G36*
G01*
X117440000Y-56524999D02*
X117440000Y-57775001D01*
G75*
G02*
X117190001Y-58025000I-249999J0D01*
G01*
X116489999Y-58025000D01*
G75*
G02*
X116240000Y-57775001I0J249999D01*
G01*
X116240000Y-56524999D01*
G75*
G02*
X116489999Y-56275000I249999J0D01*
G01*
X117190001Y-56275000D01*
G75*
G02*
X117440000Y-56524999I0J-249999D01*
G01*
G37*
%TD.AperFunction*%
%TD*%
%TO.P,J7,1*%
%TO.N,Net-(C1-Pad1)*%
%TA.AperFunction,ComponentPad*%
G36*
G01*
X127600000Y-56524999D02*
X127600000Y-57775001D01*
G75*
G02*
X127350001Y-58025000I-249999J0D01*
G01*
X126649999Y-58025000D01*
G75*
G02*
X126400000Y-57775001I0J249999D01*
G01*
X126400000Y-56524999D01*
G75*
G02*
X126649999Y-56275000I249999J0D01*
G01*
X127350001Y-56275000D01*
G75*
G02*
X127600000Y-56524999I0J-249999D01*
G01*
G37*
%TD.AperFunction*%
%TO.P,J7,2*%
%TO.N,Net-(J7-Pad2)*%
X125000000Y-57150000D03*
%TD*%
D12*
%TO.P,J8,1*%
%TO.N,GND*%
X103124000Y-100076000D03*
D13*
%TO.P,J8,2*%
%TO.N,/D10_CS*%
X103124000Y-102616000D03*
%TO.P,J8,3*%
%TO.N,/D11_MOSI*%
X100584000Y-100076000D03*
%TO.P,J8,4*%
%TO.N,/D12_MISO*%
X100584000Y-102616000D03*
%TO.P,J8,5*%
%TO.N,/D13_SCK*%
X98044000Y-100076000D03*
%TO.P,J8,6*%
%TO.N,/D14_A0*%
X98044000Y-102616000D03*
%TO.P,J8,7*%
%TO.N,/D18_SDA0*%
X95504000Y-100076000D03*
%TO.P,J8,8*%
%TO.N,/D19_SCL0*%
X95504000Y-102616000D03*
%TO.P,J8,9*%
%TO.N,/3V3*%
X92964000Y-100076000D03*
%TO.P,J8,10*%
%TO.N,/5V*%
X92964000Y-102616000D03*
%TD*%
D14*
%TO.P,J9,1*%
%TO.N,Net-(C1-Pad1)*%
X120650000Y-95250000D03*
D15*
%TO.P,J9,2*%
%TO.N,GND*%
X120650000Y-101250000D03*
D16*
%TO.P,J9,MP*%
%TO.N,N/C*%
X116150000Y-102250000D03*
X125150000Y-102250000D03*
%TD*%
D17*
%TO.P,U1,1*%
%TO.N,GND*%
X77978000Y-105410000D03*
%TO.P,U1,2*%
%TO.N,Net-(D1-Pad2)*%
X77978000Y-102870000D03*
%TO.P,U1,3*%
%TO.N,Net-(D2-Pad2)*%
X77978000Y-100330000D03*
%TO.P,U1,4*%
%TO.N,Net-(D3-Pad2)*%
X77978000Y-97790000D03*
%TO.P,U1,5*%
%TO.N,Net-(D4-Pad2)*%
X77978000Y-95250000D03*
%TO.P,U1,6*%
%TO.N,Net-(D5-Pad2)*%
X77978000Y-92710000D03*
%TO.P,U1,7*%
%TO.N,Net-(D6-Pad2)*%
X77978000Y-90170000D03*
%TO.P,U1,8*%
%TO.N,Net-(D7-Pad2)*%
X77978000Y-87630000D03*
%TO.P,U1,9*%
%TO.N,Net-(U1-Pad9)*%
X77978000Y-85090000D03*
%TO.P,U1,10*%
%TO.N,Net-(U1-Pad10)*%
X77978000Y-82550000D03*
%TO.P,U1,11*%
%TO.N,Net-(U1-Pad11)*%
X77978000Y-80010000D03*
%TO.P,U1,12*%
%TO.N,/D10_CS*%
X77978000Y-77470000D03*
%TO.P,U1,13*%
%TO.N,/D11_MOSI*%
X77978000Y-74930000D03*
%TO.P,U1,14*%
%TO.N,/D12_MISO*%
X77978000Y-72390000D03*
%TO.P,U1,15*%
%TO.N,Net-(U1-Pad15)*%
X75438000Y-72390000D03*
%TO.P,U1,16*%
%TO.N,Net-(U1-Pad16)*%
X72898000Y-72390000D03*
%TO.P,U1,17*%
%TO.N,Net-(U1-Pad17)*%
X70358000Y-72390000D03*
%TO.P,U1,18*%
%TO.N,Net-(U1-Pad18)*%
X67818000Y-72390000D03*
%TO.P,U1,19*%
%TO.N,Net-(U1-Pad19)*%
X65278000Y-72390000D03*
%TO.P,U1,20*%
%TO.N,/D13_SCK*%
X62738000Y-72390000D03*
%TO.P,U1,21*%
%TO.N,/D14_A0*%
X62738000Y-74930000D03*
%TO.P,U1,22*%
%TO.N,Net-(U1-Pad22)*%
X62738000Y-77470000D03*
%TO.P,U1,23*%
%TO.N,Net-(U1-Pad23)*%
X62738000Y-80010000D03*
%TO.P,U1,24*%
%TO.N,Net-(U1-Pad24)*%
X62738000Y-82550000D03*
%TO.P,U1,25*%
%TO.N,/D18_SDA0*%
X62738000Y-85090000D03*
%TO.P,U1,26*%
%TO.N,/D19_SCL0*%
X62738000Y-87630000D03*
%TO.P,U1,27*%
%TO.N,Net-(U1-Pad27)*%
X62738000Y-90170000D03*
%TO.P,U1,28*%
%TO.N,Net-(U1-Pad28)*%
X62738000Y-92710000D03*
%TO.P,U1,29*%
%TO.N,Net-(U1-Pad29)*%
X62738000Y-95250000D03*
%TO.P,U1,30*%
%TO.N,Net-(U1-Pad30)*%
X62738000Y-97790000D03*
%TO.P,U1,31*%
%TO.N,/3V3*%
X62738000Y-100330000D03*
%TO.P,U1,32*%
%TO.N,Net-(U1-Pad32)*%
X62738000Y-102870000D03*
%TO.P,U1,33*%
%TO.N,/5V*%
X62738000Y-105410000D03*
%TO.P,U1,34*%
%TO.N,Net-(U1-Pad34)*%
X70358000Y-90170000D03*
%TO.P,U1,35*%
%TO.N,Net-(U1-Pad35)*%
X70358000Y-87630000D03*
%TO.P,U1,36*%
%TO.N,Net-(U1-Pad36)*%
X70358000Y-85090000D03*
%TO.P,U1,37*%
%TO.N,Net-(U1-Pad37)*%
X70358000Y-82550000D03*
%TO.P,U1,38*%
%TO.N,Net-(U1-Pad38)*%
X70358000Y-80010000D03*
%TO.P,U1,39*%
%TO.N,Net-(U1-Pad39)*%
X70358000Y-77470000D03*
%TO.P,U1,40*%
%TO.N,Net-(U1-Pad40)*%
X70358000Y-74930000D03*
%TO.P,U1,41*%
%TO.N,Net-(U1-Pad41)*%
X67818000Y-74930000D03*
%TO.P,U1,42*%
%TO.N,Net-(U1-Pad42)*%
X67818000Y-77470000D03*
%TO.P,U1,43*%
%TO.N,Net-(U1-Pad43)*%
X67818000Y-80010000D03*
%TO.P,U1,44*%
%TO.N,Net-(U1-Pad44)*%
X67818000Y-82550000D03*
%TO.P,U1,45*%
%TO.N,Net-(U1-Pad45)*%
X67818000Y-85090000D03*
%TO.P,U1,46*%
%TO.N,Net-(U1-Pad46)*%
X67818000Y-87630000D03*
%TO.P,U1,47*%
%TO.N,Net-(U1-Pad47)*%
X67818000Y-90170000D03*
%TO.P,U1,48*%
%TO.N,Net-(U1-Pad48)*%
X65278000Y-92710000D03*
%TO.P,U1,49*%
%TO.N,Net-(U1-Pad49)*%
X65278000Y-95250000D03*
%TO.P,U1,50*%
%TO.N,Net-(U1-Pad50)*%
X65278000Y-97790000D03*
%TO.P,U1,51*%
%TO.N,Net-(U1-Pad51)*%
X65278000Y-102870000D03*
%TO.P,U1,*%
%TO.N,*%
X65278000Y-100330000D03*
%TD*%
D18*
%TO.N,GND*%
X96296600Y-68130200D03*
X87536800Y-66715700D03*
X77963400Y-66294000D03*
X104258900Y-68908800D03*
%TO.N,Net-(D6-Pad2)*%
X104506300Y-75762300D03*
X116186800Y-64081800D03*
%TD*%
D19*
%TO.N,Net-(C1-Pad1)*%
X123040800Y-61109200D02*
X127000000Y-57150000D01*
X123040800Y-95250000D02*
X123040800Y-61109200D01*
X123040800Y-61109200D02*
X120799200Y-61109200D01*
X120799200Y-61109200D02*
X116840000Y-57150000D01*
X116840000Y-57150000D02*
X115531000Y-55841000D01*
X115531000Y-55841000D02*
X107989000Y-55841000D01*
X107989000Y-55841000D02*
X106680000Y-57150000D01*
X120650000Y-95250000D02*
X123040800Y-95250000D01*
X76200000Y-57150000D02*
X74914200Y-58435800D01*
X74914200Y-58435800D02*
X67325800Y-58435800D01*
X67325800Y-58435800D02*
X66040000Y-57150000D01*
%TO.N,GND*%
X96296600Y-68130200D02*
X88951300Y-68130200D01*
X88951300Y-68130200D02*
X87536800Y-66715700D01*
X103124000Y-69822100D02*
X97988500Y-69822100D01*
X97988500Y-69822100D02*
X96296600Y-68130200D01*
X103124000Y-69822100D02*
X103345600Y-69822100D01*
X103345600Y-69822100D02*
X104258900Y-68908800D01*
X103124000Y-98835200D02*
X103124000Y-69822100D01*
X87536800Y-66715700D02*
X78385100Y-66715700D01*
X78385100Y-66715700D02*
X77963400Y-66294000D01*
X103124000Y-100076000D02*
X103124000Y-98835200D01*
D20*
%TO.N,/D10_CS*%
X77978000Y-77470000D02*
X96774000Y-96266000D01*
X96774000Y-96266000D02*
X96774000Y-103013200D01*
X96774000Y-103013200D02*
X98043400Y-104282600D01*
X98043400Y-104282600D02*
X101457400Y-104282600D01*
X101457400Y-104282600D02*
X103124000Y-102616000D01*
%TO.N,/D11_MOSI*%
X100584000Y-100076000D02*
X100584000Y-93334300D01*
X100584000Y-93334300D02*
X78479100Y-71229400D01*
X78479100Y-71229400D02*
X77490500Y-71229400D01*
X77490500Y-71229400D02*
X76817200Y-71902700D01*
X76817200Y-71902700D02*
X76817200Y-73769200D01*
X76817200Y-73769200D02*
X77978000Y-74930000D01*
%TO.N,/D12_MISO*%
X77978000Y-72390000D02*
X99314000Y-93726000D01*
X99314000Y-93726000D02*
X99314000Y-101346000D01*
X99314000Y-101346000D02*
X100584000Y-102616000D01*
%TO.N,/D13_SCK*%
X62738000Y-72390000D02*
X66548000Y-76200000D01*
X66548000Y-76200000D02*
X78342400Y-76200000D01*
X78342400Y-76200000D02*
X98044000Y-95901600D01*
X98044000Y-95901600D02*
X98044000Y-100076000D01*
%TO.N,/D14_A0*%
X62738000Y-74930000D02*
X61531800Y-73723800D01*
X61531800Y-73723800D02*
X61531800Y-71924000D01*
X61531800Y-71924000D02*
X62695100Y-70760700D01*
X62695100Y-70760700D02*
X78717000Y-70760700D01*
X78717000Y-70760700D02*
X101799100Y-93842800D01*
X101799100Y-93842800D02*
X101799100Y-103112300D01*
X101799100Y-103112300D02*
X101090900Y-103820500D01*
X101090900Y-103820500D02*
X99248500Y-103820500D01*
X99248500Y-103820500D02*
X98044000Y-102616000D01*
%TO.N,/D18_SDA0*%
X62738000Y-85090000D02*
X66548000Y-88900000D01*
X66548000Y-88900000D02*
X84328000Y-88900000D01*
X84328000Y-88900000D02*
X95504000Y-100076000D01*
%TO.N,/D19_SCL0*%
X62738000Y-87630000D02*
X71628000Y-96520000D01*
X71628000Y-96520000D02*
X85677600Y-96520000D01*
X85677600Y-96520000D02*
X90503600Y-101346000D01*
X90503600Y-101346000D02*
X94234000Y-101346000D01*
X94234000Y-101346000D02*
X95504000Y-102616000D01*
%TO.N,Net-(D6-Pad2)*%
X104506300Y-75762300D02*
X116186800Y-64081800D01*
%TD*%
M02*
