%TF.GenerationSoftware,KiCad,Pcbnew,5.1.7-a382d34a8~87~ubuntu18.04.1*%
%TF.CreationDate,2021-02-24T17:41:24-08:00*%
%TF.ProjectId,teensy3x_solenoid_driver,7465656e-7379-4337-985f-736f6c656e6f,rev?*%
%TF.SameCoordinates,Original*%
%TF.FileFunction,Paste,Top*%
%TF.FilePolarity,Positive*%
%FSLAX46Y46*%
G04 Gerber Fmt 4.6, Leading zero omitted, Abs format (unit mm)*
G04 Created by KiCad (PCBNEW 5.1.7-a382d34a8~87~ubuntu18.04.1) date 2021-02-24 17:41:24*
%MOMM*%
%LPD*%
G01*
G04 APERTURE LIST*
G04 APERTURE END LIST*
%TO.C,C1*%
G36*
G01*
X112555000Y-88400000D02*
X113505000Y-88400000D01*
G75*
G02*
X113755000Y-88650000I0J-250000D01*
G01*
X113755000Y-89150000D01*
G75*
G02*
X113505000Y-89400000I-250000J0D01*
G01*
X112555000Y-89400000D01*
G75*
G02*
X112305000Y-89150000I0J250000D01*
G01*
X112305000Y-88650000D01*
G75*
G02*
X112555000Y-88400000I250000J0D01*
G01*
G37*
G36*
G01*
X112555000Y-90300000D02*
X113505000Y-90300000D01*
G75*
G02*
X113755000Y-90550000I0J-250000D01*
G01*
X113755000Y-91050000D01*
G75*
G02*
X113505000Y-91300000I-250000J0D01*
G01*
X112555000Y-91300000D01*
G75*
G02*
X112305000Y-91050000I0J250000D01*
G01*
X112305000Y-90550000D01*
G75*
G02*
X112555000Y-90300000I250000J0D01*
G01*
G37*
%TD*%
%TO.C,U2*%
G36*
G01*
X94752500Y-79525000D02*
X94477500Y-79525000D01*
G75*
G02*
X94340000Y-79387500I0J137500D01*
G01*
X94340000Y-78312500D01*
G75*
G02*
X94477500Y-78175000I137500J0D01*
G01*
X94752500Y-78175000D01*
G75*
G02*
X94890000Y-78312500I0J-137500D01*
G01*
X94890000Y-79387500D01*
G75*
G02*
X94752500Y-79525000I-137500J0D01*
G01*
G37*
G36*
G01*
X96022500Y-79525000D02*
X95747500Y-79525000D01*
G75*
G02*
X95610000Y-79387500I0J137500D01*
G01*
X95610000Y-78312500D01*
G75*
G02*
X95747500Y-78175000I137500J0D01*
G01*
X96022500Y-78175000D01*
G75*
G02*
X96160000Y-78312500I0J-137500D01*
G01*
X96160000Y-79387500D01*
G75*
G02*
X96022500Y-79525000I-137500J0D01*
G01*
G37*
G36*
G01*
X97292500Y-79525000D02*
X97017500Y-79525000D01*
G75*
G02*
X96880000Y-79387500I0J137500D01*
G01*
X96880000Y-78312500D01*
G75*
G02*
X97017500Y-78175000I137500J0D01*
G01*
X97292500Y-78175000D01*
G75*
G02*
X97430000Y-78312500I0J-137500D01*
G01*
X97430000Y-79387500D01*
G75*
G02*
X97292500Y-79525000I-137500J0D01*
G01*
G37*
G36*
G01*
X98562500Y-79525000D02*
X98287500Y-79525000D01*
G75*
G02*
X98150000Y-79387500I0J137500D01*
G01*
X98150000Y-78312500D01*
G75*
G02*
X98287500Y-78175000I137500J0D01*
G01*
X98562500Y-78175000D01*
G75*
G02*
X98700000Y-78312500I0J-137500D01*
G01*
X98700000Y-79387500D01*
G75*
G02*
X98562500Y-79525000I-137500J0D01*
G01*
G37*
G36*
G01*
X99832500Y-79525000D02*
X99557500Y-79525000D01*
G75*
G02*
X99420000Y-79387500I0J137500D01*
G01*
X99420000Y-78312500D01*
G75*
G02*
X99557500Y-78175000I137500J0D01*
G01*
X99832500Y-78175000D01*
G75*
G02*
X99970000Y-78312500I0J-137500D01*
G01*
X99970000Y-79387500D01*
G75*
G02*
X99832500Y-79525000I-137500J0D01*
G01*
G37*
G36*
G01*
X101102500Y-79525000D02*
X100827500Y-79525000D01*
G75*
G02*
X100690000Y-79387500I0J137500D01*
G01*
X100690000Y-78312500D01*
G75*
G02*
X100827500Y-78175000I137500J0D01*
G01*
X101102500Y-78175000D01*
G75*
G02*
X101240000Y-78312500I0J-137500D01*
G01*
X101240000Y-79387500D01*
G75*
G02*
X101102500Y-79525000I-137500J0D01*
G01*
G37*
G36*
G01*
X102372500Y-79525000D02*
X102097500Y-79525000D01*
G75*
G02*
X101960000Y-79387500I0J137500D01*
G01*
X101960000Y-78312500D01*
G75*
G02*
X102097500Y-78175000I137500J0D01*
G01*
X102372500Y-78175000D01*
G75*
G02*
X102510000Y-78312500I0J-137500D01*
G01*
X102510000Y-79387500D01*
G75*
G02*
X102372500Y-79525000I-137500J0D01*
G01*
G37*
G36*
G01*
X103642500Y-79525000D02*
X103367500Y-79525000D01*
G75*
G02*
X103230000Y-79387500I0J137500D01*
G01*
X103230000Y-78312500D01*
G75*
G02*
X103367500Y-78175000I137500J0D01*
G01*
X103642500Y-78175000D01*
G75*
G02*
X103780000Y-78312500I0J-137500D01*
G01*
X103780000Y-79387500D01*
G75*
G02*
X103642500Y-79525000I-137500J0D01*
G01*
G37*
G36*
G01*
X103642500Y-74225000D02*
X103367500Y-74225000D01*
G75*
G02*
X103230000Y-74087500I0J137500D01*
G01*
X103230000Y-73012500D01*
G75*
G02*
X103367500Y-72875000I137500J0D01*
G01*
X103642500Y-72875000D01*
G75*
G02*
X103780000Y-73012500I0J-137500D01*
G01*
X103780000Y-74087500D01*
G75*
G02*
X103642500Y-74225000I-137500J0D01*
G01*
G37*
G36*
G01*
X102372500Y-74225000D02*
X102097500Y-74225000D01*
G75*
G02*
X101960000Y-74087500I0J137500D01*
G01*
X101960000Y-73012500D01*
G75*
G02*
X102097500Y-72875000I137500J0D01*
G01*
X102372500Y-72875000D01*
G75*
G02*
X102510000Y-73012500I0J-137500D01*
G01*
X102510000Y-74087500D01*
G75*
G02*
X102372500Y-74225000I-137500J0D01*
G01*
G37*
G36*
G01*
X101102500Y-74225000D02*
X100827500Y-74225000D01*
G75*
G02*
X100690000Y-74087500I0J137500D01*
G01*
X100690000Y-73012500D01*
G75*
G02*
X100827500Y-72875000I137500J0D01*
G01*
X101102500Y-72875000D01*
G75*
G02*
X101240000Y-73012500I0J-137500D01*
G01*
X101240000Y-74087500D01*
G75*
G02*
X101102500Y-74225000I-137500J0D01*
G01*
G37*
G36*
G01*
X99832500Y-74225000D02*
X99557500Y-74225000D01*
G75*
G02*
X99420000Y-74087500I0J137500D01*
G01*
X99420000Y-73012500D01*
G75*
G02*
X99557500Y-72875000I137500J0D01*
G01*
X99832500Y-72875000D01*
G75*
G02*
X99970000Y-73012500I0J-137500D01*
G01*
X99970000Y-74087500D01*
G75*
G02*
X99832500Y-74225000I-137500J0D01*
G01*
G37*
G36*
G01*
X98562500Y-74225000D02*
X98287500Y-74225000D01*
G75*
G02*
X98150000Y-74087500I0J137500D01*
G01*
X98150000Y-73012500D01*
G75*
G02*
X98287500Y-72875000I137500J0D01*
G01*
X98562500Y-72875000D01*
G75*
G02*
X98700000Y-73012500I0J-137500D01*
G01*
X98700000Y-74087500D01*
G75*
G02*
X98562500Y-74225000I-137500J0D01*
G01*
G37*
G36*
G01*
X97292500Y-74225000D02*
X97017500Y-74225000D01*
G75*
G02*
X96880000Y-74087500I0J137500D01*
G01*
X96880000Y-73012500D01*
G75*
G02*
X97017500Y-72875000I137500J0D01*
G01*
X97292500Y-72875000D01*
G75*
G02*
X97430000Y-73012500I0J-137500D01*
G01*
X97430000Y-74087500D01*
G75*
G02*
X97292500Y-74225000I-137500J0D01*
G01*
G37*
G36*
G01*
X96022500Y-74225000D02*
X95747500Y-74225000D01*
G75*
G02*
X95610000Y-74087500I0J137500D01*
G01*
X95610000Y-73012500D01*
G75*
G02*
X95747500Y-72875000I137500J0D01*
G01*
X96022500Y-72875000D01*
G75*
G02*
X96160000Y-73012500I0J-137500D01*
G01*
X96160000Y-74087500D01*
G75*
G02*
X96022500Y-74225000I-137500J0D01*
G01*
G37*
G36*
G01*
X94752500Y-74225000D02*
X94477500Y-74225000D01*
G75*
G02*
X94340000Y-74087500I0J137500D01*
G01*
X94340000Y-73012500D01*
G75*
G02*
X94477500Y-72875000I137500J0D01*
G01*
X94752500Y-72875000D01*
G75*
G02*
X94890000Y-73012500I0J-137500D01*
G01*
X94890000Y-74087500D01*
G75*
G02*
X94752500Y-74225000I-137500J0D01*
G01*
G37*
%TD*%
%TO.C,D1*%
G36*
G01*
X63799000Y-63248250D02*
X63799000Y-62735750D01*
G75*
G02*
X64017750Y-62517000I218750J0D01*
G01*
X64455250Y-62517000D01*
G75*
G02*
X64674000Y-62735750I0J-218750D01*
G01*
X64674000Y-63248250D01*
G75*
G02*
X64455250Y-63467000I-218750J0D01*
G01*
X64017750Y-63467000D01*
G75*
G02*
X63799000Y-63248250I0J218750D01*
G01*
G37*
G36*
G01*
X65374000Y-63248250D02*
X65374000Y-62735750D01*
G75*
G02*
X65592750Y-62517000I218750J0D01*
G01*
X66030250Y-62517000D01*
G75*
G02*
X66249000Y-62735750I0J-218750D01*
G01*
X66249000Y-63248250D01*
G75*
G02*
X66030250Y-63467000I-218750J0D01*
G01*
X65592750Y-63467000D01*
G75*
G02*
X65374000Y-63248250I0J218750D01*
G01*
G37*
%TD*%
%TO.C,D2*%
G36*
G01*
X75280000Y-63248250D02*
X75280000Y-62735750D01*
G75*
G02*
X75498750Y-62517000I218750J0D01*
G01*
X75936250Y-62517000D01*
G75*
G02*
X76155000Y-62735750I0J-218750D01*
G01*
X76155000Y-63248250D01*
G75*
G02*
X75936250Y-63467000I-218750J0D01*
G01*
X75498750Y-63467000D01*
G75*
G02*
X75280000Y-63248250I0J218750D01*
G01*
G37*
G36*
G01*
X73705000Y-63248250D02*
X73705000Y-62735750D01*
G75*
G02*
X73923750Y-62517000I218750J0D01*
G01*
X74361250Y-62517000D01*
G75*
G02*
X74580000Y-62735750I0J-218750D01*
G01*
X74580000Y-63248250D01*
G75*
G02*
X74361250Y-63467000I-218750J0D01*
G01*
X73923750Y-63467000D01*
G75*
G02*
X73705000Y-63248250I0J218750D01*
G01*
G37*
%TD*%
%TO.C,D3*%
G36*
G01*
X84093500Y-63248250D02*
X84093500Y-62735750D01*
G75*
G02*
X84312250Y-62517000I218750J0D01*
G01*
X84749750Y-62517000D01*
G75*
G02*
X84968500Y-62735750I0J-218750D01*
G01*
X84968500Y-63248250D01*
G75*
G02*
X84749750Y-63467000I-218750J0D01*
G01*
X84312250Y-63467000D01*
G75*
G02*
X84093500Y-63248250I0J218750D01*
G01*
G37*
G36*
G01*
X85668500Y-63248250D02*
X85668500Y-62735750D01*
G75*
G02*
X85887250Y-62517000I218750J0D01*
G01*
X86324750Y-62517000D01*
G75*
G02*
X86543500Y-62735750I0J-218750D01*
G01*
X86543500Y-63248250D01*
G75*
G02*
X86324750Y-63467000I-218750J0D01*
G01*
X85887250Y-63467000D01*
G75*
G02*
X85668500Y-63248250I0J218750D01*
G01*
G37*
%TD*%
%TO.C,D4*%
G36*
G01*
X95854000Y-63248250D02*
X95854000Y-62735750D01*
G75*
G02*
X96072750Y-62517000I218750J0D01*
G01*
X96510250Y-62517000D01*
G75*
G02*
X96729000Y-62735750I0J-218750D01*
G01*
X96729000Y-63248250D01*
G75*
G02*
X96510250Y-63467000I-218750J0D01*
G01*
X96072750Y-63467000D01*
G75*
G02*
X95854000Y-63248250I0J218750D01*
G01*
G37*
G36*
G01*
X94279000Y-63248250D02*
X94279000Y-62735750D01*
G75*
G02*
X94497750Y-62517000I218750J0D01*
G01*
X94935250Y-62517000D01*
G75*
G02*
X95154000Y-62735750I0J-218750D01*
G01*
X95154000Y-63248250D01*
G75*
G02*
X94935250Y-63467000I-218750J0D01*
G01*
X94497750Y-63467000D01*
G75*
G02*
X94279000Y-63248250I0J218750D01*
G01*
G37*
%TD*%
%TO.C,D5*%
G36*
G01*
X104439000Y-63248250D02*
X104439000Y-62735750D01*
G75*
G02*
X104657750Y-62517000I218750J0D01*
G01*
X105095250Y-62517000D01*
G75*
G02*
X105314000Y-62735750I0J-218750D01*
G01*
X105314000Y-63248250D01*
G75*
G02*
X105095250Y-63467000I-218750J0D01*
G01*
X104657750Y-63467000D01*
G75*
G02*
X104439000Y-63248250I0J218750D01*
G01*
G37*
G36*
G01*
X106014000Y-63248250D02*
X106014000Y-62735750D01*
G75*
G02*
X106232750Y-62517000I218750J0D01*
G01*
X106670250Y-62517000D01*
G75*
G02*
X106889000Y-62735750I0J-218750D01*
G01*
X106889000Y-63248250D01*
G75*
G02*
X106670250Y-63467000I-218750J0D01*
G01*
X106232750Y-63467000D01*
G75*
G02*
X106014000Y-63248250I0J218750D01*
G01*
G37*
%TD*%
%TO.C,D6*%
G36*
G01*
X116174000Y-63248250D02*
X116174000Y-62735750D01*
G75*
G02*
X116392750Y-62517000I218750J0D01*
G01*
X116830250Y-62517000D01*
G75*
G02*
X117049000Y-62735750I0J-218750D01*
G01*
X117049000Y-63248250D01*
G75*
G02*
X116830250Y-63467000I-218750J0D01*
G01*
X116392750Y-63467000D01*
G75*
G02*
X116174000Y-63248250I0J218750D01*
G01*
G37*
G36*
G01*
X114599000Y-63248250D02*
X114599000Y-62735750D01*
G75*
G02*
X114817750Y-62517000I218750J0D01*
G01*
X115255250Y-62517000D01*
G75*
G02*
X115474000Y-62735750I0J-218750D01*
G01*
X115474000Y-63248250D01*
G75*
G02*
X115255250Y-63467000I-218750J0D01*
G01*
X114817750Y-63467000D01*
G75*
G02*
X114599000Y-63248250I0J218750D01*
G01*
G37*
%TD*%
%TO.C,D7*%
G36*
G01*
X124759000Y-63248250D02*
X124759000Y-62735750D01*
G75*
G02*
X124977750Y-62517000I218750J0D01*
G01*
X125415250Y-62517000D01*
G75*
G02*
X125634000Y-62735750I0J-218750D01*
G01*
X125634000Y-63248250D01*
G75*
G02*
X125415250Y-63467000I-218750J0D01*
G01*
X124977750Y-63467000D01*
G75*
G02*
X124759000Y-63248250I0J218750D01*
G01*
G37*
G36*
G01*
X126334000Y-63248250D02*
X126334000Y-62735750D01*
G75*
G02*
X126552750Y-62517000I218750J0D01*
G01*
X126990250Y-62517000D01*
G75*
G02*
X127209000Y-62735750I0J-218750D01*
G01*
X127209000Y-63248250D01*
G75*
G02*
X126990250Y-63467000I-218750J0D01*
G01*
X126552750Y-63467000D01*
G75*
G02*
X126334000Y-63248250I0J218750D01*
G01*
G37*
%TD*%
%TO.C,R1*%
G36*
G01*
X65449000Y-66569000D02*
X65449000Y-66019000D01*
G75*
G02*
X65649000Y-65819000I200000J0D01*
G01*
X66049000Y-65819000D01*
G75*
G02*
X66249000Y-66019000I0J-200000D01*
G01*
X66249000Y-66569000D01*
G75*
G02*
X66049000Y-66769000I-200000J0D01*
G01*
X65649000Y-66769000D01*
G75*
G02*
X65449000Y-66569000I0J200000D01*
G01*
G37*
G36*
G01*
X63799000Y-66569000D02*
X63799000Y-66019000D01*
G75*
G02*
X63999000Y-65819000I200000J0D01*
G01*
X64399000Y-65819000D01*
G75*
G02*
X64599000Y-66019000I0J-200000D01*
G01*
X64599000Y-66569000D01*
G75*
G02*
X64399000Y-66769000I-200000J0D01*
G01*
X63999000Y-66769000D01*
G75*
G02*
X63799000Y-66569000I0J200000D01*
G01*
G37*
%TD*%
%TO.C,R2*%
G36*
G01*
X75355000Y-66569000D02*
X75355000Y-66019000D01*
G75*
G02*
X75555000Y-65819000I200000J0D01*
G01*
X75955000Y-65819000D01*
G75*
G02*
X76155000Y-66019000I0J-200000D01*
G01*
X76155000Y-66569000D01*
G75*
G02*
X75955000Y-66769000I-200000J0D01*
G01*
X75555000Y-66769000D01*
G75*
G02*
X75355000Y-66569000I0J200000D01*
G01*
G37*
G36*
G01*
X73705000Y-66569000D02*
X73705000Y-66019000D01*
G75*
G02*
X73905000Y-65819000I200000J0D01*
G01*
X74305000Y-65819000D01*
G75*
G02*
X74505000Y-66019000I0J-200000D01*
G01*
X74505000Y-66569000D01*
G75*
G02*
X74305000Y-66769000I-200000J0D01*
G01*
X73905000Y-66769000D01*
G75*
G02*
X73705000Y-66569000I0J200000D01*
G01*
G37*
%TD*%
%TO.C,R3*%
G36*
G01*
X84119000Y-66569000D02*
X84119000Y-66019000D01*
G75*
G02*
X84319000Y-65819000I200000J0D01*
G01*
X84719000Y-65819000D01*
G75*
G02*
X84919000Y-66019000I0J-200000D01*
G01*
X84919000Y-66569000D01*
G75*
G02*
X84719000Y-66769000I-200000J0D01*
G01*
X84319000Y-66769000D01*
G75*
G02*
X84119000Y-66569000I0J200000D01*
G01*
G37*
G36*
G01*
X85769000Y-66569000D02*
X85769000Y-66019000D01*
G75*
G02*
X85969000Y-65819000I200000J0D01*
G01*
X86369000Y-65819000D01*
G75*
G02*
X86569000Y-66019000I0J-200000D01*
G01*
X86569000Y-66569000D01*
G75*
G02*
X86369000Y-66769000I-200000J0D01*
G01*
X85969000Y-66769000D01*
G75*
G02*
X85769000Y-66569000I0J200000D01*
G01*
G37*
%TD*%
%TO.C,R4*%
G36*
G01*
X95929000Y-66569000D02*
X95929000Y-66019000D01*
G75*
G02*
X96129000Y-65819000I200000J0D01*
G01*
X96529000Y-65819000D01*
G75*
G02*
X96729000Y-66019000I0J-200000D01*
G01*
X96729000Y-66569000D01*
G75*
G02*
X96529000Y-66769000I-200000J0D01*
G01*
X96129000Y-66769000D01*
G75*
G02*
X95929000Y-66569000I0J200000D01*
G01*
G37*
G36*
G01*
X94279000Y-66569000D02*
X94279000Y-66019000D01*
G75*
G02*
X94479000Y-65819000I200000J0D01*
G01*
X94879000Y-65819000D01*
G75*
G02*
X95079000Y-66019000I0J-200000D01*
G01*
X95079000Y-66569000D01*
G75*
G02*
X94879000Y-66769000I-200000J0D01*
G01*
X94479000Y-66769000D01*
G75*
G02*
X94279000Y-66569000I0J200000D01*
G01*
G37*
%TD*%
%TO.C,R5*%
G36*
G01*
X104439000Y-66569000D02*
X104439000Y-66019000D01*
G75*
G02*
X104639000Y-65819000I200000J0D01*
G01*
X105039000Y-65819000D01*
G75*
G02*
X105239000Y-66019000I0J-200000D01*
G01*
X105239000Y-66569000D01*
G75*
G02*
X105039000Y-66769000I-200000J0D01*
G01*
X104639000Y-66769000D01*
G75*
G02*
X104439000Y-66569000I0J200000D01*
G01*
G37*
G36*
G01*
X106089000Y-66569000D02*
X106089000Y-66019000D01*
G75*
G02*
X106289000Y-65819000I200000J0D01*
G01*
X106689000Y-65819000D01*
G75*
G02*
X106889000Y-66019000I0J-200000D01*
G01*
X106889000Y-66569000D01*
G75*
G02*
X106689000Y-66769000I-200000J0D01*
G01*
X106289000Y-66769000D01*
G75*
G02*
X106089000Y-66569000I0J200000D01*
G01*
G37*
%TD*%
%TO.C,R6*%
G36*
G01*
X116249000Y-66569000D02*
X116249000Y-66019000D01*
G75*
G02*
X116449000Y-65819000I200000J0D01*
G01*
X116849000Y-65819000D01*
G75*
G02*
X117049000Y-66019000I0J-200000D01*
G01*
X117049000Y-66569000D01*
G75*
G02*
X116849000Y-66769000I-200000J0D01*
G01*
X116449000Y-66769000D01*
G75*
G02*
X116249000Y-66569000I0J200000D01*
G01*
G37*
G36*
G01*
X114599000Y-66569000D02*
X114599000Y-66019000D01*
G75*
G02*
X114799000Y-65819000I200000J0D01*
G01*
X115199000Y-65819000D01*
G75*
G02*
X115399000Y-66019000I0J-200000D01*
G01*
X115399000Y-66569000D01*
G75*
G02*
X115199000Y-66769000I-200000J0D01*
G01*
X114799000Y-66769000D01*
G75*
G02*
X114599000Y-66569000I0J200000D01*
G01*
G37*
%TD*%
%TO.C,R7*%
G36*
G01*
X124759000Y-66569000D02*
X124759000Y-66019000D01*
G75*
G02*
X124959000Y-65819000I200000J0D01*
G01*
X125359000Y-65819000D01*
G75*
G02*
X125559000Y-66019000I0J-200000D01*
G01*
X125559000Y-66569000D01*
G75*
G02*
X125359000Y-66769000I-200000J0D01*
G01*
X124959000Y-66769000D01*
G75*
G02*
X124759000Y-66569000I0J200000D01*
G01*
G37*
G36*
G01*
X126409000Y-66569000D02*
X126409000Y-66019000D01*
G75*
G02*
X126609000Y-65819000I200000J0D01*
G01*
X127009000Y-65819000D01*
G75*
G02*
X127209000Y-66019000I0J-200000D01*
G01*
X127209000Y-66569000D01*
G75*
G02*
X127009000Y-66769000I-200000J0D01*
G01*
X126609000Y-66769000D01*
G75*
G02*
X126409000Y-66569000I0J200000D01*
G01*
G37*
%TD*%
M02*
