M48
; DRILL file {KiCad 5.1.7-a382d34a8~87~ubuntu18.04.1} date Wed Feb 24 17:41:27 2021
; FORMAT={-:-/ absolute / inch / decimal}
; #@! TF.CreationDate,2021-02-24T17:41:27-08:00
; #@! TF.GenerationSoftware,Kicad,Pcbnew,5.1.7-a382d34a8~87~ubuntu18.04.1
; #@! TF.FileFunction,Plated,1,2,PTH
FMAT,2
INCH
T1C0.0157
T2C0.0295
T3C0.0394
T4C0.0400
T5C0.1160
%
G90
G05
T1
X3.0694Y-2.61
X3.4463Y-2.6266
X3.7912Y-2.6823
X4.1047Y-2.7129
X4.1144Y-2.9828
X4.5743Y-2.5229
T2
X2.5213Y-2.25
X2.6Y-2.25
X4.9213Y-2.25
X5.0Y-2.25
X4.1213Y-2.25
X4.2Y-2.25
X4.5213Y-2.25
X4.6Y-2.25
X3.7213Y-2.25
X3.8Y-2.25
X2.9213Y-2.25
X3.0Y-2.25
X3.3213Y-2.25
X3.4Y-2.25
T4
X2.47Y-2.85
X2.47Y-2.95
X2.47Y-3.05
X2.47Y-3.15
X2.47Y-3.25
X2.47Y-3.35
X2.47Y-3.45
X2.47Y-3.55
X2.47Y-3.65
X2.47Y-3.75
X2.47Y-3.85
X2.47Y-3.95
X2.47Y-4.05
X2.47Y-4.15
X2.57Y-2.85
X2.57Y-3.65
X2.57Y-3.75
X2.57Y-3.85
X2.57Y-3.95
X2.57Y-4.05
X2.67Y-2.85
X2.67Y-2.95
X2.67Y-3.05
X2.67Y-3.15
X2.67Y-3.25
X2.67Y-3.35
X2.67Y-3.45
X2.67Y-3.55
X2.77Y-2.85
X2.77Y-2.95
X2.77Y-3.05
X2.77Y-3.15
X2.77Y-3.25
X2.77Y-3.35
X2.77Y-3.45
X2.77Y-3.55
X2.87Y-2.85
X2.97Y-2.85
X3.07Y-2.85
X3.07Y-2.95
X3.07Y-3.05
X3.07Y-3.15
X3.07Y-3.25
X3.07Y-3.35
X3.07Y-3.45
X3.07Y-3.55
X3.07Y-3.65
X3.07Y-3.75
X3.07Y-3.85
X3.07Y-3.95
X3.07Y-4.05
X3.07Y-4.15
X3.66Y-3.94
X3.66Y-4.04
X3.76Y-3.94
X3.76Y-4.04
X3.86Y-3.94
X3.86Y-4.04
X3.96Y-3.94
X3.96Y-4.04
X4.06Y-3.94
X4.06Y-4.04
T5
X2.15Y-2.15
X2.15Y-4.1
X5.35Y-4.1
X5.35Y-2.15
T3
G00X4.5728Y-3.9961
M15
G01X4.5728Y-4.0551
M16
G05
G00X4.7106Y-3.75
M15
G01X4.7894Y-3.75
M16
G05
G00X4.7244Y-3.9862
M15
G01X4.7756Y-3.9862
M16
G05
G00X4.9272Y-3.9961
M15
G01X4.9272Y-4.0551
M16
G05
T0
M30
